<?xml version="1.0" encoding="UTF-8"?>
<svg width="24px" height="24px" viewBox="0 0 24 24" version="1.1" xmlns="http://www.w3.org/2000/svg">
  <g stroke="none" stroke-width="1" fill="none" fill-rule="evenodd">
    <path d="M12,2 C17.5228475,2 22,6.4771525 22,12 C22,17.5228475 17.5228475,22 12,22 C6.4771525,22 2,17.5228475 2,12 C2,6.4771525 6.4771525,2 12,2 Z M12,4 C7.581722,4 4,7.581722 4,12 C4,16.418278 7.581722,20 12,20 C16.418278,20 20,16.418278 20,12 C20,7.581722 16.418278,4 12,4 Z M12,7.5 C12.2761424,7.5 12.5,7.72385763 12.5,8 L12.5,14.2928932 L15.1464466,11.6464466 C15.3417088,11.4511845 15.6582912,11.4511845 15.8535534,11.6464466 C16.0488155,11.8417088 16.0488155,12.1582912 15.8535534,12.3535534 L12.3535534,15.8535534 C12.1582912,16.0488155 11.8417088,16.0488155 11.6464466,15.8535534 L8.14644661,12.3535534 C7.95118446,12.1582912 7.95118446,11.8417088 8.14644661,11.6464466 C8.34170876,11.4511845 8.65829124,11.4511845 8.85355339,11.6464466 L11.5,14.2928932 L11.5,8 C11.5,7.72385763 11.7238576,7.5 12,7.5 Z" fill="#FFF" fill-rule="nonzero" transform="matrix(1, 0, 0, -1, 0, 24)"></path>
  </g>
</svg>
